<svg width="400" height="400" viewBox="0 0 400 400" fill="none" xmlns="http://www.w3.org/2000/svg">
<rect width="400" height="400" rx="20" fill="black"/>
<path fill-rule="evenodd" clip-rule="evenodd" d="M241.6 103.326C248.803 103.678 255.082 107.263 259.102 112.61L139.277 105.719L139.636 98.3443L241.6 103.326ZM138.763 116.263L263.56 123.44C263.751 124.841 263.816 126.279 263.745 127.742C263.663 129.426 263.404 131.06 262.987 132.626C262.12 131.824 260.98 131.307 259.709 131.234L138.373 124.256L138.763 116.263ZM137.859 134.801L137.367 144.903L239.331 149.884C246.835 150.251 253.682 147.027 258.208 141.722L137.859 134.801Z" fill="#FFC804"/>
<path fill-rule="evenodd" clip-rule="evenodd" d="M189.639 176.039C195.942 176.355 201.535 179.147 205.522 183.426L121.565 179.214C125.96 175.355 131.804 173.137 138.106 173.453L189.639 176.039ZM114.827 189.349L211.214 194.186C211.669 196.204 211.86 198.317 211.752 200.484C211.707 201.369 211.614 202.241 211.475 203.095L113.678 198.188C113.625 197.324 113.619 196.448 113.663 195.563C113.772 193.396 114.173 191.312 114.827 189.349ZM117.019 208.83C120.898 215.203 127.763 219.607 135.776 220.009L187.309 222.594C195.322 222.996 202.591 219.302 207.088 213.349L117.019 208.83Z" fill="#FFC804"/>
<rect x="221.368" y="205.598" width="61.1028" height="13.5935" rx="6.79677" fill="#FE0000"/>
<rect x="262.103" y="162.269" width="72.9839" height="13.5935" rx="6.79677" fill="#38D800"/>
<rect x="221.368" y="263.37" width="61.1028" height="13.5935" rx="6.79677" fill="#FE0000"/>
<rect x="244.281" y="212.395" width="15.2757" height="64.5693" fill="#FE0000"/>
<rect x="290.109" y="133.382" width="16.973" height="71.3661" rx="8.4865" fill="#38D800"/>
<path d="M329.685 193.704C344.77 231.107 317.364 277.45 268.471 297.214C219.578 316.978 167.713 302.679 152.627 265.276" stroke="#00C2FF" stroke-width="3"/>
<rect width="57.5708" height="7.22596" transform="matrix(0.998746 0.0500741 -0.0499629 0.998751 91.8844 96)" fill="#FFC804"/>
<rect width="5.58787" height="8.75618" transform="matrix(0.956525 0.29165 -0.291056 0.956706 122.767 100.187)" fill="#FFC804"/>
<path fill-rule="evenodd" clip-rule="evenodd" d="M148.643 116.854L134.915 116.048L88.966 273.059L78.7947 270.076L126.751 106.204L91.959 96L44 259.88L55.0763 263.129L102.992 99.3984L113.163 102.382L65.2476 266.112L101.824 276.84L148.643 116.854Z" fill="#FFC804"/>
</svg>
