<svg width="369" height="279" viewBox="0 0 369 279" fill="none" xmlns="http://www.w3.org/2000/svg">
<path fill-rule="evenodd" clip-rule="evenodd" d="M232.871 8.62422C241.349 9.03795 248.74 13.258 253.471 19.5506L112.268 11.4391L112.692 2.75933L232.871 8.62422ZM111.663 23.85L258.718 32.2977C258.942 33.9466 259.018 35.6395 258.934 37.3618C258.838 39.3436 258.533 41.266 258.042 43.1089C257.022 42.1662 255.681 41.5583 254.185 41.4724L111.204 33.2587L111.663 23.85ZM110.598 45.6696L110.018 57.5601L230.197 63.425C239.029 63.856 247.089 60.0604 252.417 53.8165L110.598 45.6696Z" fill="#FFC804"/>
<path fill-rule="evenodd" clip-rule="evenodd" d="M171.643 94.2094C179.062 94.5812 185.644 97.8671 190.338 102.903L91.3891 97.9443C96.5625 93.4025 103.44 90.7913 110.859 91.1631L171.643 94.2094ZM83.4572 109.875L197.037 115.567C197.572 117.943 197.796 120.43 197.669 122.981C197.616 124.023 197.507 125.048 197.343 126.054L82.1042 120.278C82.0417 119.261 82.0351 118.23 82.0873 117.189C82.2152 114.637 82.6876 112.185 83.4572 109.875ZM86.0364 132.804C90.6017 140.305 98.6813 145.488 108.113 145.96L168.897 149.007C178.328 149.479 186.886 145.131 192.178 138.123L86.0364 132.804Z" fill="#FFC804"/>
<rect x="209" y="129" width="72" height="16" rx="8" fill="#FE0000"/>
<rect x="257" y="78" width="86" height="16" rx="8" fill="#38D800"/>
<rect x="209" y="197" width="72" height="16" rx="8" fill="#FE0000"/>
<rect x="236" y="137" width="18" height="76" fill="#FE0000"/>
<rect x="290" y="44" width="20" height="84" rx="10" fill="#38D800"/>
<path d="M336.634 115C354.41 159.024 322.117 213.572 264.504 236.835C206.891 260.098 145.776 243.267 128 199.242" stroke="#00C2FF" stroke-width="3"/>
<rect x="56.4242" width="67.8378" height="8.50519" transform="rotate(2.86704 56.4242 0)" fill="#FFC804"/>
<rect x="92.8149" y="4.92761" width="6.5838" height="10.3073" transform="rotate(16.939 92.8149 4.92761)" fill="#FFC804"/>
<path fill-rule="evenodd" clip-rule="evenodd" d="M123.305 24.5463L107.129 23.597L52.9853 208.404L41 204.892L97.5089 12.011L56.5121 0L0 192.892L13.0516 196.716L69.5121 4L81.4974 7.51135L25.0369 200.227L68.136 212.854L123.305 24.5463Z" fill="#FFC804"/>
</svg>
